# xmcd
#
# Track frame offsets: 
#        150
#        18407
#        35737
#        52388
#        70062
#        85371
#        101347
#        118021
#        137972
#        156645
#        175540
#        191134
#        209693
#        229937
#        245296
#        265335
#        290649
#        311171
#
# Disc length: 4434 seconds
#
# Revision: 0
# Processed by: cddbd v1.5.1PL0 Copyright (c) Steve Scherf et al.
# Submitted via: ExactAudioCopy v0.95a5
#
DISCID=1b115012
DTITLE=CELINE DION - A NEW DAY-YOU AND I
DYEAR=1900
DGENRE=
TTITLE0=I DIRVE ALL NIGHT
TTITLE1=LOVE IS ALL WE NEED
TTITLE2=FAITH
TTITLE3=IN HIS TOU
TTITLE4=ONE HEART
TTITLE5=STANDY BY YOUR SIDE
TTITLE6=NAKED
TTITLE7=SORRY FOR LOVE
TTITLE8=HAVE YOU NEVER BEEN IN LOVE
TTITLE9=REVEAL
TTITLE10=COULDY WOULD A SHOULDA
TTITLE11=FRGER ME NOT 
TTITLE12=I KONW WHAT LOVE IS
TTITLE13=JET AIME ENCORE
TTITLE14=A NEW DAY HAS COSE
TTITLE15=PRAYER
TTITLE16=LOVE ME 
TTITLE17=THE POWER OF LOVE
EXTD=
EXTT0=
EXTT1=
EXTT2=
EXTT3=
EXTT4=
EXTT5=
EXTT6=
EXTT7=
EXTT8=
EXTT9=
EXTT10=
EXTT11=
EXTT12=
EXTT13=
EXTT14=
EXTT15=
EXTT16=
EXTT17=
PLAYORDER=
